# xmcd
#
# Track frame offsets: 
#        150
#        15402
#        29442
#        48444
#        65044
#        75996
#        89061
#        107250
#        127240
#        142529
#        157718
#        174677
#
# Disc length: 2523 seconds
#
# Revision: 0
# Processed by: cddbd v1.5.1PL2 Copyright (c) Steve Scherf et al.
# Submitted via: ExactAudioCopy v0.95b4
#
DISCID=8e09d90c
DTITLE=Nadine - Lit Up From The Inside
DYEAR=2000
DGENRE=Country
TTITLE0=End of the Night
TTITLE1=When I Was a Boy
TTITLE2=Losing Track
TTITLE3=Hope Like the Rain
TTITLE4=Just Couldn't Lie
TTITLE5=Lead the Way
TTITLE6=Angela
TTITLE7=Still Be There
TTITLE8=Streets
TTITLE9=Without a Reply
TTITLE10=Every One Sided Story
TTITLE11=Four Years Ago
EXTD=
EXTT0=
EXTT1=
EXTT2=
EXTT3=
EXTT4=
EXTT5=
EXTT6=
EXTT7=
EXTT8=
EXTT9=
EXTT10=
EXTT11=
PLAYORDER=
